<?xml version="1.0" encoding="utf-8"?>
<!-- Generator: Adobe Illustrator 16.0.0, SVG Export Plug-In . SVG Version: 6.00 Build 0)  -->
<!DOCTYPE svg PUBLIC "-//W3C//DTD SVG 1.1//EN" "http://www.w3.org/Graphics/SVG/1.1/DTD/svg11.dtd">
<svg version="1.1" id="Layer_1" xmlns="http://www.w3.org/2000/svg" xmlns:xlink="http://www.w3.org/1999/xlink" x="0px" y="0px"
	 width="30px" height="30px" viewBox="0 0 30 30" enable-background="new 0 0 30 30" xml:space="preserve">
<path display="none" fill-rule="evenodd" clip-rule="evenodd" fill="#BEBEBE" d="M-0.658-0.594
	C-0.64-0.64,30.676-0.596,30.676-0.596V30.74c0,0-7.671,0-9.792,0c0-3.585,0-7.17,0-10.771c0.91,0,1.777-0.007,2.643,0.004
	c0.207,0.003,0.323-0.045,0.405-0.258c0.567-1.451,1.149-2.896,1.727-4.343c0.036-0.09,0.064-0.184,0.11-0.31
	c-1.647,0-3.254,0-4.877,0c0-1.38-0.011-2.735,0.007-4.089c0.006-0.411,0.252-0.652,0.656-0.732c0.211-0.041,0.427-0.059,0.64-0.062
	c0.642-0.008,1.285-0.002,1.927-0.002c0.221,0,0.441,0,0.654,0c0-1.655,0-3.27,0-4.896c-1.298,0-2.571-0.004-3.846,0
	c-3.323,0.012-5.911,2.599-5.921,5.923c-0.002,1.173,0,2.346,0,3.519c0,0.108,0,0.217,0,0.359c-1.324,0-2.612,0-3.902,0
	c0,1.641,0,3.249,0,4.89c1.302,0,2.59,0,3.902,0c0,3.611,0,7.19,0,10.768c-4.081,0-15.667,0-15.667,0S-0.658,7.566-0.658-0.594z"/>
<path display="none" fill-rule="evenodd" clip-rule="evenodd" fill="#3B3B3B" d="M15.01,30.74c0-3.577,0-7.156,0-10.768
	c-1.311,0-2.6,0-3.902,0c0-1.642,0-3.249,0-4.89c1.29,0,2.578,0,3.902,0c0-0.142,0-0.25,0-0.359c0-1.173-0.002-2.346,0-3.519
	c0.01-3.324,2.597-5.911,5.923-5.923c1.271-0.004,2.547,0,3.846,0c0,1.626,0,3.241,0,4.896c-0.216,0-0.437,0-0.657,0
	c-0.642,0-1.283-0.005-1.927,0.002c-0.213,0.002-0.429,0.021-0.637,0.062c-0.404,0.08-0.651,0.321-0.656,0.732
	c-0.021,1.354-0.008,2.709-0.008,4.089c1.621,0,3.228,0,4.875,0c-0.043,0.126-0.071,0.22-0.107,0.31
	c-0.577,1.446-1.162,2.892-1.729,4.343c-0.082,0.213-0.195,0.261-0.403,0.258c-0.867-0.011-1.732-0.004-2.643-0.004
	c0,3.601,0,7.186,0,10.771C18.928,30.74,16.968,30.74,15.01,30.74z"/>
<path display="none" fill="#BFBFBF" d="M-0.658-0.615v31.272h31.334V-0.615H-0.658z M27.707,22.859
	c-0.005,2.775-2.066,4.846-4.843,4.853c-5.226,0.014-10.455,0.013-15.681,0.002c-2.81-0.007-4.855-2.069-4.874-4.912
	c-0.017-2.579-0.003-5.161-0.003-7.741c-0.001-2.593-0.008-5.187,0.001-7.78c0.009-2.25,1.223-4.016,3.263-4.689
	C6.082,2.423,6.643,2.338,7.18,2.336c5.229-0.019,10.456-0.019,15.684-0.008c2.771,0.006,4.838,2.074,4.843,4.85
	C27.72,12.405,27.72,17.634,27.707,22.859z"/>
<path fill="#3B3B3B" d="M22.864,2.318C17.636,2.308,12.409,2.308,7.18,2.327C6.643,2.329,6.082,2.413,5.571,2.582
	c-2.04,0.674-3.254,2.439-3.263,4.69c-0.009,2.593-0.002,5.187-0.001,7.78c0,2.58-0.014,5.161,0.003,7.74
	c0.019,2.843,2.064,4.904,4.874,4.912c5.227,0.01,10.456,0.013,15.681-0.001c2.776-0.007,4.838-2.077,4.843-4.853
	c0.013-5.228,0.013-10.456,0-15.683C27.702,4.393,25.636,2.324,22.864,2.318z M20.51,5.193c1.404,0,2.813,0,4.263,0
	c0,1.42,0,2.832,0,4.276c-0.047,0-0.093,0-0.142,0c-1.375,0-2.737,0-4.121,0c0-1.36,0-2.722,0-4.12
	C20.51,5.296,20.51,5.246,20.51,5.193z M19.511,14.991c0.003,2.484-2.028,4.517-4.512,4.512s-4.485-2.036-4.472-4.538
	c0.013-2.476,2.032-4.482,4.499-4.473C17.496,10.501,19.508,12.52,19.511,14.991z M25.443,12.878c0,3.248,0.002,6.496,0,9.745
	c-0.003,1.692-1.125,2.812-2.813,2.814c-5.079,0-10.158,0-15.237,0c-1.696-0.003-2.798-1.111-2.799-2.817
	c-0.001-3.249,0-6.497,0-9.745c0-0.132,0-0.264,0-0.446c0.238,0,0.462,0,0.697,0c1.061,0,2.109,0,3.143,0
	c-1.024,3.663-0.168,6.661,3.162,8.675c2.396,1.452,5.501,1.204,7.674-0.556c2.639-2.137,3.294-4.891,2.298-8.113
	c1.006,0,2.025,0,3.063,0c0.271,0,0.538,0,0.813,0C25.443,12.593,25.443,12.736,25.443,12.878z"/>
<path display="none" fill="#BFBFBF" d="M24.621,12.449c-1.037,0-2.057,0-3.061,0c0.996,3.222,0.338,5.976-2.3,8.114
	c-2.173,1.76-5.278,2.007-7.674,0.556c-3.33-2.016-4.186-5.014-3.161-8.675c-1.034,0-2.082,0-3.143,0c-0.236,0-0.459,0-0.697,0
	c0,0.182,0,0.314,0,0.446c0,3.248-0.001,6.495,0,9.744c0,1.707,1.103,2.816,2.798,2.817c5.079,0.002,10.158,0.002,15.237,0
	c1.69-0.001,2.81-1.121,2.812-2.814c0.003-3.249,0-6.497,0-9.744c0-0.142,0-0.285,0-0.443
	C25.159,12.449,24.893,12.449,24.621,12.449z"/>
<path display="none" fill="#BFBFBF" d="M14.99,19.519c2.482,0.005,4.514-2.028,4.511-4.512c-0.003-2.472-2.014-4.491-4.484-4.5
	c-2.467-0.009-4.485,1.997-4.499,4.473C10.504,17.482,12.506,19.512,14.99,19.519z"/>
<path display="none" fill="#BFBFBF" d="M20.499,5.208c0,0.053,0,0.103,0,0.156c0,1.398,0,2.76,0,4.12c1.384,0,2.747,0,4.122,0
	c0.049,0,0.095,0,0.141,0c0-1.444,0-2.855,0-4.276C23.313,5.208,21.903,5.208,20.499,5.208z"/>
<g display="none">
	<rect x="-0.658" y="-0.615" fill="#BEBEBE" width="31.334" height="31.334"/>
	<path fill="#5F6062" d="M26.981,23.925H3.038c-0.439,0-0.793-0.357-0.793-0.794V6.973c0-0.439,0.354-0.794,0.793-0.794h23.943
		c0.437,0,0.791,0.355,0.791,0.794v16.158C27.772,23.567,27.418,23.925,26.981,23.925 M3.831,22.338h22.354V7.766H3.831V22.338z"/>
	<path fill="#5F6062" d="M15.01,17.542c-0.836,0-1.674-0.301-2.34-0.898L2.509,7.564c-0.246-0.22-0.33-0.567-0.212-0.874
		c0.118-0.307,0.412-0.511,0.741-0.511h23.943c0.328,0,0.624,0.204,0.74,0.511s0.033,0.654-0.212,0.874l-10.161,9.079
		C16.681,17.241,15.846,17.542,15.01,17.542 M5.118,7.766l8.609,7.695c0.73,0.654,1.832,0.654,2.562,0L24.9,7.766H5.118z"/>
	<path fill="#5F6062" d="M26.981,23.814H3.038c-0.329,0-0.624-0.202-0.742-0.512c-0.118-0.307-0.033-0.653,0.213-0.873l8.917-7.969
		c0.326-0.293,0.829-0.264,1.12,0.062c0.293,0.328,0.264,0.829-0.062,1.123l-7.367,6.585H24.9l-7.366-6.585
		c-0.326-0.293-0.353-0.794-0.063-1.123c0.294-0.326,0.796-0.355,1.122-0.062l8.917,7.969c0.245,0.22,0.328,0.566,0.212,0.873
		C27.605,23.612,27.31,23.814,26.981,23.814"/>
</g>
</svg>
