<?xml version="1.0" encoding="utf-8"?>
<!-- Generator: Adobe Illustrator 16.0.0, SVG Export Plug-In . SVG Version: 6.00 Build 0)  -->
<!DOCTYPE svg PUBLIC "-//W3C//DTD SVG 1.1//EN" "http://www.w3.org/Graphics/SVG/1.1/DTD/svg11.dtd">
<svg version="1.1" id="Layer_1" xmlns="http://www.w3.org/2000/svg" xmlns:xlink="http://www.w3.org/1999/xlink" x="0px" y="0px"
	 width="30px" height="30px" viewBox="0 0 30 30" enable-background="new 0 0 30 30" xml:space="preserve">
<path fill="#414042" d="M26.629,24.119H3.706c-0.42,0-0.76-0.342-0.76-0.76V7.889c0-0.42,0.339-0.76,0.76-0.76h22.923
	c0.418,0,0.758,0.34,0.758,0.76v15.47C27.387,23.777,27.047,24.119,26.629,24.119 M4.465,22.6h21.402V8.648H4.465V22.6z"/>
<path fill="#414042" d="M15.167,18.008c-0.801,0-1.603-0.287-2.24-0.859L3.199,8.456C2.964,8.245,2.883,7.913,2.996,7.619
	s0.395-0.489,0.71-0.489h22.923c0.314,0,0.598,0.195,0.709,0.489s0.031,0.626-0.203,0.837l-9.729,8.693
	C16.768,17.721,15.968,18.008,15.167,18.008 M5.697,8.648l8.243,7.368c0.699,0.627,1.754,0.627,2.453,0l8.244-7.368H5.697z"/>
<path fill="#414042" d="M26.629,24.014H3.706c-0.315,0-0.598-0.193-0.71-0.49c-0.112-0.293-0.031-0.625,0.204-0.836l8.537-7.629
	c0.313-0.281,0.794-0.253,1.073,0.059c0.28,0.314,0.253,0.794-0.06,1.075l-7.054,6.305h18.941l-7.053-6.305
	c-0.313-0.281-0.338-0.76-0.061-1.075c0.281-0.312,0.762-0.34,1.074-0.059l8.537,7.629c0.234,0.211,0.314,0.543,0.203,0.836
	C27.227,23.82,26.943,24.014,26.629,24.014"/>
<path display="none" fill-rule="evenodd" clip-rule="evenodd" fill="#3B3B3B" d="M12,25.488c0-2.723,0-5.446,0-8.195
	c-0.998,0-1.979,0-2.97,0c0-1.249,0-2.472,0-3.722c0.981,0,1.962,0,2.97,0c0-0.108,0-0.19,0-0.273c0-0.893-0.002-1.786,0-2.678
	c0.008-2.53,1.977-4.499,4.507-4.508c0.969-0.003,1.939,0,2.928,0c0,1.238,0,2.467,0,3.727c-0.164,0-0.332,0-0.5,0
	c-0.488,0-0.977-0.004-1.467,0.002c-0.162,0.002-0.326,0.016-0.484,0.047c-0.309,0.061-0.496,0.244-0.5,0.557
	c-0.016,1.031-0.006,2.062-0.006,3.112c1.234,0,2.457,0,3.711,0c-0.033,0.096-0.055,0.167-0.082,0.236
	c-0.439,1.101-0.885,2.201-1.316,3.305c-0.063,0.162-0.148,0.198-0.307,0.196c-0.66-0.008-1.318-0.003-2.012-0.003
	c0,2.74,0,5.469,0,8.197C14.982,25.488,13.491,25.488,12,25.488z"/>
</svg>
